<svg width="32" height="32" viewBox="0 0 32 32" fill="none" xmlns="http://www.w3.org/2000/svg">
<path d="M27.5 4.00012H25.4495C24.9001 1.36271 21.1002 1.35842 20.5505 4.00019C20.5505 4.00012 14.4495 4.00012 14.4495 4.00012C13.8868 1.35902 10.1162 1.35183 9.55054 4.00017C9.55054 4.00011 5 4.00012 5 4.00012C3.34571 4.00012 2 5.34582 2 7.00011V27.0001C2 28.6544 3.34571 30.0001 5 30.0001C5.98355 30.0208 25.9832 29.9852 27.4999 30.0002C28.8784 30.0001 30 28.8785 30 27.5001V6.50011C30 5.1217 28.8784 4.00012 27.5 4.00012ZM23 3.00012C23.651 3.00012 24.2008 3.41937 24.4079 4.00012H21.5921C21.7992 3.41937 22.349 3.00012 23 3.00012ZM12 3.00012C12.651 3.00012 13.2008 3.41937 13.4079 4.00012H10.5921C10.7992 3.41937 11.349 3.00012 12 3.00012ZM5 5.00011H5.51278C5.19549 5.41925 5 5.93514 5 6.50011V8.00011H3V7.00011C3 5.89709 3.89722 5.00011 5 5.00011ZM29 27.5001C29 28.3273 28.3272 29.0001 27.5 29.0001H7.5C6.67285 29.0001 6 28.3273 6 27.5001V26.0001C6 25.7237 5.77612 25.5001 5.5 25.5001C5.22388 25.5001 5 25.7237 5 26.0001C5.01315 26.8873 4.85326 28.2921 5.51285 29.0001C5.51278 29.0001 5 29.0001 5 29.0001C3.89722 29.0001 3 28.1031 3 27.0001V9.00011H5V23.5001C5 23.7765 5.22388 24.0001 5.5 24.0001C5.77612 24.0001 6 23.7765 6 23.5001V9.00011H27C27.6455 8.99584 27.6657 8.00965 27 8.00012C27 8.00011 6 8.00011 6 8.00011V6.50011C6 5.67297 6.67285 5.00011 7.5 5.00011H13.4079C13.2008 5.58086 12.651 6.00011 12 6.00011C11.7239 6.00011 11.5 6.22375 11.5 6.50011C11.5 6.77648 11.7239 7.00011 12 7.00011C13.2072 7.00011 14.2171 6.13976 14.4495 5.00011H24.4079C24.2008 5.58086 23.651 6.00011 23 6.00011C22.7239 6.00011 22.5 6.22375 22.5 6.50011C22.5 6.77648 22.7239 7.00011 23 7.00011C24.2072 7.00011 25.2171 6.13976 25.4495 5.00011H27.5C28.3272 5.00011 29 5.67297 29 6.50011L29 27.5001Z" fill="#5C5C5C"/>
<path d="M23.3535 22.1465C23.1582 21.9512 22.8418 21.9512 22.6465 22.1465L22.25 22.543L21.8535 22.1465C21.6582 21.9512 21.3418 21.9512 21.1465 22.1465C20.9512 22.3418 20.9512 22.6582 21.1465 22.8535L21.543 23.25L21.1465 23.6465C20.9512 23.8418 20.9512 24.1582 21.1465 24.3535C21.3418 24.5488 21.6582 24.5488 21.8535 24.3535L22.25 23.957L22.6465 24.3535C22.8418 24.5488 23.1582 24.5488 23.3535 24.3535C23.5488 24.1582 23.5488 23.8418 23.3535 23.6465L22.957 23.25L23.3535 22.8535C23.5488 22.6582 23.5488 22.3418 23.3535 22.1465Z" fill="#5C5C5C"/>
<path d="M22.25 19.5C22.1656 19.5 22.083 19.5071 22 19.5127V15C22 14.1729 21.3272 13.5 20.5 13.5H18.75V12.5C18.75 11.6729 18.0772 11 17.25 11H13.75C12.9229 11 12.25 11.6729 12.25 12.5V13.5H10.5C9.67285 13.5 9 14.1729 9 15V21.5C9 22.3272 9.67285 23 10.5 23H18.5127C18.3481 25.1481 20.0993 27.0091 22.25 27C27.2198 26.8034 27.2216 19.697 22.25 19.5ZM13.25 12.5C13.25 12.2241 13.4744 12 13.75 12H17.25C17.5256 12 17.75 12.2241 17.75 12.5V13.5H13.25V12.5ZM10.5 22C10.2244 22 10 21.7759 10 21.5V15C10 14.7241 10.2244 14.5 10.5 14.5H20.5C20.7756 14.5 21 14.7241 21 15V16C19.6221 16 15.8192 16 14.5 16H12C11.7239 16 11.5 16.2236 11.5 16.5C11.5 16.7764 11.7239 17 12 17H14V17.5C14 18.3271 14.6729 19 15.5 19C16.3271 19 17 18.3271 17 17.5V17H21V19.7188C19.9375 20.096 19.096 20.9375 18.7188 22H10.5ZM15 17H16V17.5C16 17.7759 15.7756 18 15.5 18C15.2244 18 15 17.7759 15 17.5V17ZM22.25 26C20.7336 26 19.5 24.7661 19.5 23.25C19.6293 19.6104 24.8713 19.6113 25 23.25C25 24.7661 23.7664 26 22.25 26Z" fill="#38C4FF"/>
</svg>
