<svg width="24" height="24" viewBox="0 0 24 24" fill="none" xmlns="http://www.w3.org/2000/svg">
<g clip-path="url(#clip0_55_1887)">
<path d="M10.8846 19.999H2.93025C2.50634 19.999 2.0998 19.8304 1.80006 19.5303C1.50031 19.2303 1.33191 18.8233 1.33191 18.399V7.19896H18.9136V10.5696C18.9136 10.7111 18.9697 10.8467 19.0696 10.9467C19.1696 11.0468 19.3051 11.103 19.4464 11.103C19.5877 11.103 19.7232 11.0468 19.8231 10.9467C19.923 10.8467 19.9792 10.7111 19.9792 10.5696V4.53229C19.9783 3.82531 19.6974 3.14752 19.198 2.64761C18.6986 2.1477 18.0215 1.86647 17.3153 1.86562H16.2497C16.2497 1.44128 16.0813 1.03431 15.7816 0.734254C15.4818 0.434196 15.0753 0.265625 14.6514 0.265625C14.2275 0.265625 13.8209 0.434196 13.5212 0.734254C13.2214 1.03431 13.053 1.44128 13.053 1.86562H7.19248C7.19248 1.44128 7.02408 1.03431 6.72434 0.734254C6.42459 0.434196 6.01805 0.265625 5.59414 0.265625C5.17024 0.265625 4.76369 0.434196 4.46395 0.734254C4.1642 1.03431 3.99581 1.44128 3.99581 1.86562H2.93025C2.224 1.86647 1.54692 2.1477 1.04753 2.64761C0.548134 3.14752 0.267203 3.82531 0.266357 4.53229V18.399C0.267203 19.1059 0.548134 19.7837 1.04753 20.2836C1.54692 20.7836 2.224 21.0648 2.93025 21.0656H10.8846C11.0259 21.0656 11.1614 21.0094 11.2614 20.9094C11.3613 20.8094 11.4174 20.6737 11.4174 20.5323C11.4174 20.3908 11.3613 20.2552 11.2614 20.1552C11.1614 20.0551 11.0259 19.999 10.8846 19.999ZM14.1186 1.86562C14.1186 1.72418 14.1747 1.58852 14.2746 1.4885C14.3746 1.38848 14.5101 1.33229 14.6514 1.33229C14.7927 1.33229 14.9282 1.38848 15.0281 1.4885C15.128 1.58852 15.1842 1.72418 15.1842 1.86562V2.93229C15.1842 3.07374 15.128 3.2094 15.0281 3.30942C14.9282 3.40943 14.7927 3.46562 14.6514 3.46562C14.5101 3.46562 14.3746 3.40943 14.2746 3.30942C14.1747 3.2094 14.1186 3.07374 14.1186 2.93229V1.86562ZM5.06136 1.86562C5.06136 1.72418 5.11749 1.58852 5.21741 1.4885C5.31733 1.38848 5.45284 1.33229 5.59414 1.33229C5.73544 1.33229 5.87096 1.38848 5.97087 1.4885C6.07079 1.58852 6.12692 1.72418 6.12692 1.86562V2.93229C6.12692 3.07374 6.07079 3.2094 5.97087 3.30942C5.87096 3.40943 5.73544 3.46562 5.59414 3.46562C5.45284 3.46562 5.31733 3.40943 5.21741 3.30942C5.11749 3.2094 5.06136 3.07374 5.06136 2.93229V1.86562ZM1.33191 4.53229C1.33191 4.10794 1.50031 3.70098 1.80006 3.40092C2.0998 3.10086 2.50634 2.93229 2.93025 2.93229H3.99581C3.99581 3.35664 4.1642 3.7636 4.46395 4.06366C4.76369 4.36372 5.17024 4.53229 5.59414 4.53229C6.01805 4.53229 6.42459 4.36372 6.72434 4.06366C7.02408 3.7636 7.19248 3.35664 7.19248 2.93229H13.053C13.053 3.35664 13.2214 3.7636 13.5212 4.06366C13.8209 4.36372 14.2275 4.53229 14.6514 4.53229C15.0753 4.53229 15.4818 4.36372 15.7816 4.06366C16.0813 3.7636 16.2497 3.35664 16.2497 2.93229H17.3153C17.7392 2.93229 18.1457 3.10086 18.4455 3.40092C18.7452 3.70098 18.9136 4.10794 18.9136 4.53229V6.13229H1.33191V4.53229Z" fill="#333333"/>
<path d="M6.65975 9.86574C6.65975 9.58284 6.54748 9.31153 6.34765 9.11149C6.14782 8.91145 5.87679 8.79907 5.59419 8.79907H3.99585C3.71325 8.79907 3.44222 8.91145 3.24239 9.11149C3.04256 9.31153 2.9303 9.58284 2.9303 9.86574V11.4657C2.9303 11.7486 3.04256 12.0199 3.24239 12.22C3.44222 12.42 3.71325 12.5324 3.99585 12.5324H5.59419C5.87679 12.5324 6.14782 12.42 6.34765 12.22C6.54748 12.0199 6.65975 11.7486 6.65975 11.4657V9.86574ZM3.99585 11.4657V9.86574H5.59419V11.4657H3.99585Z" fill="#333333"/>
<path d="M11.9875 9.86574C11.9875 9.58284 11.8752 9.31153 11.6754 9.11149C11.4756 8.91145 11.2046 8.79907 10.9219 8.79907H9.32361C9.04101 8.79907 8.76998 8.91145 8.57015 9.11149C8.37032 9.31153 8.25806 9.58284 8.25806 9.86574V11.4657C8.25806 11.7486 8.37032 12.0199 8.57015 12.22C8.76998 12.42 9.04101 12.5324 9.32361 12.5324H10.9219C11.2046 12.5324 11.4756 12.42 11.6754 12.22C11.8752 12.0199 11.9875 11.7486 11.9875 11.4657V9.86574ZM9.32361 11.4657V9.86574H10.9219V11.4657H9.32361Z" fill="#333333"/>
<path d="M16.7825 11.0071C16.9238 11.0071 17.0593 10.9509 17.1592 10.8509C17.2591 10.7508 17.3153 10.6152 17.3153 10.4737V9.86574C17.3153 9.58284 17.203 9.31153 17.0032 9.11149C16.8033 8.91145 16.5323 8.79907 16.2497 8.79907H14.6514C14.3688 8.79907 14.0977 8.91145 13.8979 9.11149C13.6981 9.31153 13.5858 9.58284 13.5858 9.86574V11.4017C13.5858 11.5432 13.6419 11.6788 13.7419 11.7789C13.8418 11.8789 13.9773 11.9351 14.1186 11.9351C14.2599 11.9351 14.3954 11.8789 14.4953 11.7789C14.5952 11.6788 14.6514 11.5432 14.6514 11.4017V9.86574H16.2497V10.4737C16.2497 10.6152 16.3058 10.7508 16.4058 10.8509C16.5057 10.9509 16.6412 11.0071 16.7825 11.0071Z" fill="#333333"/>
<path d="M5.59419 14.1323H3.99585C3.71325 14.1323 3.44222 14.2447 3.24239 14.4447C3.04256 14.6448 2.9303 14.9161 2.9303 15.199V16.799C2.9303 17.0819 3.04256 17.3532 3.24239 17.5532C3.44222 17.7533 3.71325 17.8657 3.99585 17.8657H5.59419C5.87679 17.8657 6.14782 17.7533 6.34765 17.5532C6.54748 17.3532 6.65975 17.0819 6.65975 16.799V15.199C6.65975 14.9161 6.54748 14.6448 6.34765 14.4447C6.14782 14.2447 5.87679 14.1323 5.59419 14.1323ZM3.99585 16.799V15.199H5.59419V16.799H3.99585Z" fill="#333333"/>
<path d="M11.2896 14.2022C11.1726 14.1557 11.0478 14.132 10.9219 14.1323H9.32361C9.04101 14.1323 8.76998 14.2447 8.57015 14.4447C8.37032 14.6448 8.25806 14.9161 8.25806 15.199V16.799C8.25806 17.0819 8.37032 17.3532 8.57015 17.5532C8.76998 17.7533 9.04101 17.8657 9.32361 17.8657H10.4105C10.5518 17.8657 10.6873 17.8095 10.7872 17.7095C10.8871 17.6094 10.9433 17.4738 10.9433 17.3323C10.9433 17.1909 10.8871 17.0552 10.7872 16.9552C10.6873 16.8552 10.5518 16.799 10.4105 16.799H9.32361V15.199L10.8953 15.1931C11.0263 15.2442 11.1722 15.2414 11.3011 15.1852C11.43 15.1291 11.5316 15.0242 11.5836 14.8935C11.6356 14.7627 11.6339 14.6167 11.5788 14.4872C11.5238 14.3577 11.4198 14.2553 11.2896 14.2022Z" fill="#333333"/>
<path d="M17.8481 11.999C16.689 11.999 15.5559 12.3431 14.5922 12.9877C13.6284 13.6324 12.8772 14.5486 12.4337 15.6206C11.9901 16.6926 11.874 17.8722 12.1002 19.0102C12.3263 20.1482 12.8845 21.1936 13.7041 22.0141C14.5237 22.8345 15.5679 23.3933 16.7048 23.6196C17.8416 23.846 19.02 23.7298 20.0909 23.2858C21.1617 22.8417 22.077 22.0898 22.721 21.125C23.365 20.1603 23.7087 19.026 23.7087 17.8657C23.7068 16.3103 23.0888 14.8192 21.9901 13.7194C20.8915 12.6195 19.4019 12.0009 17.8481 11.999ZM17.8481 22.6657C16.8998 22.6657 15.9727 22.3842 15.1842 21.8567C14.3956 21.3293 13.781 20.5797 13.4181 19.7026C13.0552 18.8255 12.9602 17.8604 13.1452 16.9293C13.3303 15.9981 13.7869 15.1429 14.4575 14.4716C15.1281 13.8003 15.9825 13.3431 16.9127 13.1579C17.8428 12.9727 18.8069 13.0678 19.6831 13.4311C20.5593 13.7944 21.3081 14.4096 21.835 15.199C22.3619 15.9883 22.6431 16.9163 22.6431 17.8657C22.6417 19.1383 22.1361 20.3584 21.2371 21.2582C20.3382 22.1581 19.1194 22.6643 17.8481 22.6657Z" fill="#333333"/>
<path d="M18.381 17.645V15.1991C18.381 15.0577 18.3249 14.922 18.2249 14.822C18.125 14.722 17.9895 14.6658 17.8482 14.6658C17.7069 14.6658 17.5714 14.722 17.4715 14.822C17.3716 14.922 17.3154 15.0577 17.3154 15.1991V17.8658C17.3155 18.0072 17.3716 18.1428 17.4715 18.2428L18.5371 19.3095C18.6376 19.4067 18.7722 19.4604 18.9118 19.4592C19.0515 19.458 19.1852 19.4019 19.284 19.303C19.3827 19.2041 19.4388 19.0704 19.44 18.9305C19.4412 18.7907 19.3875 18.656 19.2904 18.5554L18.381 17.645Z" fill="#333333"/>
</g>
<defs>
<clipPath id="clip0_55_1887">
<rect width="24" height="24" fill="white" transform="translate(0 -0.000976562)"/>
</clipPath>
</defs>
</svg>
