<svg width="42" height="42" viewBox="0 0 42 42" fill="none" xmlns="http://www.w3.org/2000/svg">
<path d="M11.1409 28.6693H4.81393C3.31547 28.6693 2.10083 27.4544 2.10083 25.9557V3.61602C2.10075 2.11731 3.31547 0.902344 4.81393 0.902344H37.1863C38.6847 0.902344 39.8994 2.11731 39.8994 3.61602V25.9557C39.8994 27.4544 38.6846 28.6693 37.1863 28.6693H30.7956" stroke="#5C5C5C" stroke-width="1.2" stroke-miterlimit="10" stroke-linecap="round" stroke-linejoin="round"/>
<path d="M14.9505 23.221H7.56567V15.7632H17.6584V21.617" stroke="#5C5C5C" stroke-width="1.2" stroke-miterlimit="10" stroke-linecap="round" stroke-linejoin="round"/>
<path d="M29.8972 19.3818H35.1976" stroke="#5C5C5C" stroke-width="1.2" stroke-miterlimit="10" stroke-linecap="round" stroke-linejoin="round"/>
<path d="M21.0002 41.0977C26.4932 41.0977 30.946 36.6622 30.946 31.1907C30.946 25.7192 26.4932 21.2837 21.0002 21.2837C15.5073 21.2837 11.0544 25.7192 11.0544 31.1907C11.0544 36.6622 15.5073 41.0977 21.0002 41.0977Z" stroke="#5C5C5C" stroke-width="1.2" stroke-miterlimit="10" stroke-linecap="round" stroke-linejoin="round"/>
<path d="M29.8972 15.7632H35.1976" stroke="#5C5C5C" stroke-width="1.2" stroke-miterlimit="10" stroke-linecap="round" stroke-linejoin="round"/>
<path d="M39.4894 10.9468H2.51099" stroke="#5C5C5C" stroke-width="1.2" stroke-miterlimit="10" stroke-linecap="round" stroke-linejoin="round"/>
<path d="M2.51099 6.04248H39.4894" stroke="#5C5C5C" stroke-width="1.2" stroke-miterlimit="10" stroke-linecap="round" stroke-linejoin="round"/>
<path d="M23.6838 28.5176L18.3167 33.8638" stroke="#38C4FF" stroke-width="1.80469" stroke-miterlimit="10" stroke-linecap="round" stroke-linejoin="round"/>
<path d="M23.6838 33.8638L18.3167 28.5176" stroke="#38C4FF" stroke-width="1.80469" stroke-miterlimit="10" stroke-linecap="round" stroke-linejoin="round"/>
</svg>
